<?xml version="1.0" standalone="no"?>
<!DOCTYPE svg PUBLIC "-//W3C//DTD SVG 20010904//EN"
 "http://www.w3.org/TR/2001/REC-SVG-20010904/DTD/svg10.dtd">
<svg version="1.0" xmlns="http://www.w3.org/2000/svg"
 width="64.000000pt" height="64.000000pt" viewBox="0 0 64.000000 64.000000"
 preserveAspectRatio="xMidYMid meet">
<metadata>
Created by potrace 1.14, written by Peter Selinger 2001-2017
</metadata>
<g transform="translate(0.000000,64.000000) scale(0.100000,-0.100000)"
fill="#000000" stroke="none">
<path d="M61 581 c-20 -13 -23 -527 -4 -543 8 -7 77 -9 190 -6 149 4 186 8
227 25 101 41 149 120 149 243 -1 92 -14 146 -50 192 -59 76 -137 98 -348 98
-82 0 -156 -4 -164 -9z m342 -118 c51 -21 70 -60 71 -148 2 -135 -32 -166
-186 -173 l-97 -4 0 171 1 172 86 -2 c50 -1 103 -8 125 -16z"/>
</g>
</svg>
